<?xml version="1.0" encoding="utf-8"?>
<!-- Generator: Adobe Illustrator 19.0.0, SVG Export Plug-In . SVG Version: 6.00 Build 0)  -->
<svg version="1.1" id="Layer_1" xmlns="http://www.w3.org/2000/svg" xmlns:xlink="http://www.w3.org/1999/xlink" x="0px" y="0px"
	 viewBox="0 0 512 512" style="enable-background:new 0 0 512 512;" xml:space="preserve">
<style type="text/css">
	.st0{fill:#CE6F2D;}
	.st1{fill:#FFFFFF;}
</style>
<g>
	<circle id="XMLID_3_" class="st0" cx="256" cy="256" r="256"/>
	<g>
		<rect id="XMLID_8_" x="189" y="321.2" class="st1" width="113.6" height="19.5"/>
		<polygon id="XMLID_7_" class="st1" points="168.5,267.2 148.9,267.2 148.9,380.7 342.6,380.7 342.6,267.2 322.1,267.2 
			322.1,360.3 168.5,360.3 		"/>
		
			<rect id="XMLID_6_" x="236" y="238.9" transform="matrix(-9.192419e-002 0.9958 -0.9958 -9.192419e-002 561.8324 77.0662)" class="st1" width="19.5" height="111.7"/>
		<polygon id="XMLID_5_" class="st1" points="308.1,261.6 303.5,281.1 194.6,254.1 199.2,233.7 		"/>
		<polygon id="XMLID_4_" class="st1" points="319.3,232.7 310.9,249.5 213.2,199.2 222.5,182.5 		"/>
		<polygon id="XMLID_2_" class="st1" points="340.7,210.4 326.7,226.2 240.2,153.6 253.2,139.6 		"/>
		<polygon id="XMLID_1_" class="st1" points="363.1,190.8 346.3,201.1 283,111.7 298.8,101.5 		"/>
	</g>
</g>
</svg>
