<svg version="1.0" xmlns="http://www.w3.org/2000/svg"
 width="4096.000000pt" height="4096.000000pt" viewBox="0 0 4096.000000 4096.000000"
 preserveAspectRatio="xMidYMid meet">

<g transform="translate(0.000000,4096.000000) scale(0.100000,-0.100000)"
fill="#000000" stroke="none">
<path d="M20060 40949 c-2156 -40 -4313 -427 -6335 -1136 -1810 -634 -3518
-1516 -5070 -2618 -3191 -2264 -5655 -5365 -7137 -8979 -947 -2310 -1465
-4832 -1506 -7329 -12 -700 7 -1386 53 -1987 205 -2633 896 -5149 2061 -7500
1263 -2550 3053 -4818 5249 -6650 3580 -2986 8064 -4659 12703 -4738 807 -14
1537 11 2277 78 3279 299 6409 1375 9185 3158 1911 1228 3635 2796 5047 4592
2532 3222 4035 7120 4317 11200 64 923 64 1957 0 2880 -137 1984 -570 3962
-1271 5810 -1204 3172 -3175 5994 -5747 8223 -2858 2480 -6334 4115 -10046
4726 -955 158 -1941 251 -2819 266 -157 3 -353 7 -436 8 -82 2 -319 0 -525 -4z
m5117 -14695 c2611 -2027 4751 -3689 4756 -3693 4 -4 -349 -477 -785 -1052
l-792 -1044 -534 -1175 c-294 -646 -535 -1176 -536 -1177 -2 -2 -134 60 -296
137 -161 78 -294 139 -295 138 -5 -5 -435 -1812 -435 -1825 0 -10 60 -13 265
-13 l265 0 0 -1190 0 -1190 -6310 0 -6310 0 0 1190 0 1190 5992 2 5992 3
-5969 1229 c-3283 676 -5979 1232 -5991 1235 -21 6 -15 34 246 1125 146 616
271 1121 277 1123 5 2 2349 -478 5208 -1067 2860 -589 5203 -1069 5207 -1068
5 2 -2103 1013 -4684 2247 -2581 1234 -4695 2245 -4697 2247 -3 3 1065 2362
1074 2372 2 2 11406 -5446 11460 -5475 6 -3 3 1 -5 9 -8 9 -2300 1790 -5093
3958 -3475 2698 -5075 3946 -5069 3954 5 6 262 345 572 754 l563 742 588 0
588 0 4748 -3686z m-11777 -10494 l0 -2360 7080 0 7080 0 0 2360 0 2360 1190
0 1190 0 0 -3550 0 -3550 -9460 0 -9460 0 0 3550 0 3550 1190 0 1190 0 0
-2360z"/>
</g>
</svg>
